<?xml version="1.0" encoding="UTF-8"?>
<svg width="1482px" height="643px" viewBox="0 0 1482 643" version="1.1" xmlns="http://www.w3.org/2000/svg" xmlns:xlink="http://www.w3.org/1999/xlink">
    <title>YESS</title>
    <g id="YESS" stroke="none" stroke-width="1" fill="none" fill-rule="evenodd">
        <g id="Group" transform="translate(169.162645, 142.662645)" fill="#000000">
            <g id="Icon" transform="translate(177.837355, 177.837355) rotate(-45.000000) translate(-177.837355, -177.837355) translate(52.837355, 51.337355)">
                <polygon id="3" points="200 -2.47434327e-13 250 -2.38809282e-13 250 253 -4.98926666e-14 253 -4.98926666e-14 203 200 203"></polygon>
                <polygon id="2" points="125 -2.47434327e-13 175 -2.38809282e-13 175 175 -4.495658e-14 175 -3.31604604e-14 125 125 125"></polygon>
                <polygon id="1" points="47.5718075 0.281439558 97.2182541 4.36483168e-12 97.2182541 102.875108 2.60543684e-12 104.289322 0.195653121 53.3144481 47.5718075 52.6073414"></polygon>
            </g>
            <path d="M1030.96981,75.8146282 C1046.29556,75.8146282 1059.60901,78.4064843 1070.91015,83.5901964 C1082.21128,88.7739085 1090.98496,96.0343252 1097.23117,105.371446 C1103.47738,114.708568 1106.66488,125.526749 1106.79367,137.825992 L1106.79367,137.825992 L1061.00958,137.825992 L1060.96107,137.334339 C1060.23192,130.486676 1057.39865,125.12878 1052.46128,121.260651 C1047.40636,117.300424 1040.21034,115.32031 1030.87322,115.32031 C1024.6914,115.32031 1019.53988,116.125234 1015.41867,117.735083 C1011.29746,119.344931 1008.20655,121.550424 1006.14594,124.35156 C1004.08534,127.152696 1003.02284,130.356295 1002.95844,133.962355 C1002.82965,136.924477 1003.4253,139.532431 1004.74537,141.786219 C1006.06545,144.040007 1007.99727,146.020121 1010.54083,147.72656 C1013.08439,149.432999 1016.1592,150.930158 1019.76526,152.218037 C1023.37132,153.505916 1027.42814,154.63281 1031.93572,155.598719 L1031.93572,155.598719 L1048.93572,159.462355 L1049.98004,159.692744 C1059.33963,161.79064 1067.63641,164.547177 1074.87037,167.962355 C1082.37227,171.504022 1088.68287,175.721825 1093.80219,180.615765 C1098.92151,185.509704 1102.80125,191.144174 1105.4414,197.519174 C1108.08155,203.894174 1109.43382,211.041901 1109.49822,218.962355 C1109.43382,231.45478 1106.27852,242.176371 1100.03231,251.127128 C1093.78609,260.077886 1084.81924,266.93584 1073.13174,271.700992 C1061.44424,276.466143 1047.35806,278.848719 1030.87322,278.848719 C1014.32397,278.848719 999.899731,276.369552 987.600488,271.411219 C975.301246,266.452886 965.738746,258.918795 958.912988,248.808946 C952.087231,238.699098 948.577761,225.916901 948.384579,210.462355 L948.384579,210.462355 L994.16867,210.462355 L994.210181,211.075974 C994.6665,217.178992 996.359103,222.286952 999.287988,226.399855 C1002.3145,230.649855 1006.48401,233.869552 1011.79651,236.058946 C1017.10901,238.24834 1023.27473,239.343037 1030.29367,239.343037 C1036.73306,239.343037 1042.22265,238.473719 1046.76242,236.735083 C1051.30219,234.996446 1054.79556,232.581674 1057.24253,229.490765 C1059.6895,226.399855 1060.94519,222.858189 1061.00958,218.865765 C1060.94519,215.130916 1059.78609,211.927318 1057.53231,209.254969 C1055.27852,206.582621 1051.81734,204.264439 1047.14878,202.300424 C1042.48022,200.336408 1036.53988,198.51728 1029.32776,196.843037 L1029.32776,196.843037 L1008.65731,192.013492 L1007.75915,191.804509 C991.056286,187.861594 977.865141,181.572353 968.185715,172.936787 C958.480492,164.278205 953.586696,152.60467 953.504328,137.916181 L953.504328,137.916181 L953.503897,136.542269 C953.567053,124.599789 956.851144,114.112924 963.35617,105.081674 C969.988746,95.8733403 979.164882,88.6934161 990.884579,83.5419009 C1002.60428,78.3903858 1015.96602,75.8146282 1030.96981,75.8146282 Z M856.882095,75.8146282 C872.207853,75.8146282 885.5213,78.4064843 896.822436,83.5901964 C908.123573,88.7739085 916.897247,96.0343252 923.143459,105.371446 C929.389671,114.708568 932.577171,125.526749 932.705959,137.825992 L932.705959,137.825992 L886.921868,137.825992 L886.873364,137.334339 C886.144204,130.486676 883.310941,125.12878 878.373573,121.260651 C873.318648,117.300424 866.122626,115.32031 856.785505,115.32031 C850.603686,115.32031 845.452171,116.125234 841.330959,117.735083 C837.209747,119.344931 834.118838,121.550424 832.058232,124.35156 C829.997626,127.152696 828.935126,130.356295 828.870732,133.962355 C828.741944,136.924477 829.337588,139.532431 830.657664,141.786219 C831.977739,144.040007 833.909558,146.020121 836.453118,147.72656 C838.996679,149.432999 842.071489,150.930158 845.67755,152.218037 C849.283611,153.505916 853.340429,154.63281 857.848005,155.598719 L857.848005,155.598719 L874.848005,159.462355 L875.892332,159.692744 C885.251917,161.79064 893.548694,164.547177 900.782664,167.962355 C908.284558,171.504022 914.595164,175.721825 919.714482,180.615765 C924.8338,185.509704 928.713535,191.144174 931.353686,197.519174 C933.993838,203.894174 935.346111,211.041901 935.410505,218.962355 C935.346111,231.45478 932.190808,242.176371 925.944595,251.127128 C919.698383,260.077886 910.731527,266.93584 899.044027,271.700992 C887.356527,276.466143 873.270353,278.848719 856.785505,278.848719 C840.236262,278.848719 825.81202,276.369552 813.512777,271.411219 C801.213535,266.452886 791.651035,258.918795 784.825277,248.808946 C777.99952,238.699098 774.49005,225.916901 774.296868,210.462355 L774.296868,210.462355 L820.080959,210.462355 L820.12247,211.075974 C820.578789,217.178992 822.271392,222.286952 825.200277,226.399855 C828.226792,230.649855 832.3963,233.869552 837.7088,236.058946 C843.0213,238.24834 849.18702,239.343037 856.205959,239.343037 C862.645353,239.343037 868.134936,238.473719 872.674709,236.735083 C877.214482,234.996446 880.707853,232.581674 883.154823,229.490765 C885.601792,226.399855 886.857474,222.858189 886.921868,218.865765 C886.857474,215.130916 885.698383,211.927318 883.444595,209.254969 C881.190808,206.582621 877.729633,204.264439 873.061073,202.300424 C868.392512,200.336408 862.452171,198.51728 855.24005,196.843037 L855.24005,196.843037 L834.569595,192.013492 L833.67144,191.804509 C816.968575,187.861594 803.77743,181.572353 794.098005,172.936787 C784.245732,164.147015 779.351792,152.250234 779.416186,137.246446 L779.416186,136.542269 C779.479342,124.599789 782.763433,114.112924 789.268459,105.081674 C795.901035,95.8733403 805.077171,88.6934161 816.796868,83.5419009 C828.516565,78.3903858 841.878308,75.8146282 856.882095,75.8146282 Z M763.62393,78.5191737 L763.62393,117.348719 L673.504612,117.348719 L673.504612,157.916901 L756.572794,157.916901 L756.572794,196.843037 L673.504612,196.843037 L673.504612,237.50781 L763.62393,237.50781 L763.62393,276.337355 L625.692112,276.337355 L625.692112,78.5191737 L763.62393,78.5191737 Z M477.371446,78.5191737 L519.19531,161.297583 L520.933946,161.297583 L562.75781,78.5191737 L616.172583,78.5191737 L543.825992,210.269174 L543.825992,276.337355 L496.303265,276.337355 L496.303265,210.269174 L423.956674,78.5191737 L477.371446,78.5191737 Z" id="YESS" fill-rule="nonzero"></path>
        </g>
    </g>
</svg>