<svg height="357" viewBox="0 0 1110 357" width="1110" xmlns="http://www.w3.org/2000/svg"><g fill-rule="evenodd" transform="translate(.162645 .662645)"><g transform="matrix(.70710678 -.70710678 .70710678 .70710678 0 176.776695)"><path d="m200 0h50v253h-250v-50h200z"/><path d="m125 0h50v175h-175v-50h125z"/><path d="m47.5718075.28143956 49.6464466-.28143956v102.875108l-97.2182541 1.414214.19565312-50.9748739 47.37615438-.7071067z"/></g><path d="m1030.96981 75.8146282c15.32575 0 28.6392 2.5918561 39.94034 7.7755682 11.30113 5.1837121 20.07481 12.4441288 26.32102 21.7812496 6.24621 9.337122 9.43371 20.155303 9.5625 32.454546h-45.78409l-.04851-.491653c-.72915-6.847663-3.56242-12.205559-8.49979-16.073688-5.05492-3.960227-12.25094-5.940341-21.58806-5.940341-6.18182 0-11.33334.804924-15.45455 2.414773-4.12121 1.609848-7.21212 3.815341-9.27273 6.616477-2.0606 2.801136-3.1231 6.004735-3.1875 9.610795-.12879 2.962122.46686 5.570076 1.78693 7.823864 1.32008 2.253788 3.2519 4.233902 5.79546 5.940341s5.61837 3.203598 9.22443 4.491477 7.66288 2.414773 12.17046 3.380682l17 3.863636 1.04432.230389c9.35959 2.097896 17.65637 4.854433 24.89033 8.269611 7.5019 3.541667 13.8125 7.75947 18.93182 12.65341 5.11932 4.893939 8.99906 10.528409 11.63921 16.903409s3.99242 13.522727 4.05682 21.443181c-.0644 12.492425-3.2197 23.214016-9.46591 32.164773-6.24622 8.950758-15.21307 15.808712-26.90057 20.573864-11.6875 4.765151-25.77368 7.147727-42.25852 7.147727-16.54925 0-30.973489-2.479167-43.272732-7.4375-12.299242-4.958333-21.861742-12.492424-28.6875-22.602273-6.825757-10.109848-10.335227-22.892045-10.528409-38.346591h45.784091l.041511.613619c.456319 6.103018 2.148922 11.210978 5.077807 15.323881 3.026512 4.25 7.196022 7.469697 12.508522 9.659091s11.47822 3.284091 18.49716 3.284091c6.43939 0 11.92898-.869318 16.46875-2.607954 4.53977-1.738637 8.03314-4.153409 10.48011-7.244318 2.44697-3.09091 3.70266-6.632576 3.76705-10.625-.06439-3.734849-1.22349-6.938447-3.47727-9.610796-2.25379-2.672348-5.71497-4.99053-10.38353-6.954545-4.66856-1.964016-10.6089-3.783144-17.82102-5.457387l-20.67045-4.829545-.89816-.208983c-16.702864-3.942915-29.894009-10.232156-39.573435-18.867722-9.705223-8.658582-14.599019-20.332117-14.681387-35.020606l-.000431-1.373912c.063156-11.94248 3.347247-22.429345 9.852273-31.460595 6.632576-9.2083337 15.808712-16.3882579 27.528409-21.5397731 11.719701-5.1515151 25.081441-7.7272727 40.085231-7.7272727zm-174.087715 0c15.325758 0 28.639205 2.5918561 39.940341 7.7755682 11.301137 5.1837121 20.074811 12.4441288 26.321023 21.7812496 6.246212 9.337122 9.433712 20.155303 9.5625 32.454546h-45.784091l-.048504-.491653c-.72916-6.847663-3.562423-12.205559-8.499791-16.073688-5.054925-3.960227-12.250947-5.940341-21.588068-5.940341-6.181819 0-11.333334.804924-15.454546 2.414773-4.121212 1.609848-7.212121 3.815341-9.272727 6.616477s-3.123106 6.004735-3.1875 9.610795c-.128788 2.962122.466856 5.570076 1.786932 7.823864 1.320075 2.253788 3.251894 4.233902 5.795454 5.940341 2.543561 1.706439 5.618371 3.203598 9.224432 4.491477s7.662879 2.414773 12.170455 3.380682l17 3.863636 1.044327.230389c9.359585 2.097896 17.656362 4.854433 24.890332 8.269611 7.501894 3.541667 13.8125 7.75947 18.931818 12.65341 5.119318 4.893939 8.999053 10.528409 11.639204 16.903409 2.640152 6.375 3.992425 13.522727 4.056819 21.443181-.064394 12.492425-3.219697 23.214016-9.46591 32.164773-6.246212 8.950758-15.213068 15.808712-26.900568 20.573864-11.6875 4.765151-25.773674 7.147727-42.258522 7.147727-16.549243 0-30.973485-2.479167-43.272728-7.4375-12.299242-4.958333-21.861742-12.492424-28.6875-22.602273-6.825757-10.109848-10.335227-22.892045-10.528409-38.346591h45.784091l.041511.613619c.456319 6.103018 2.148922 11.210978 5.077807 15.323881 3.026515 4.25 7.196023 7.469697 12.508523 9.659091s11.47822 3.284091 18.497159 3.284091c6.439394 0 11.928977-.869318 16.46875-2.607954 4.539773-1.738637 8.033144-4.153409 10.480114-7.244318 2.446969-3.09091 3.702651-6.632576 3.767045-10.625-.064394-3.734849-1.223485-6.938447-3.477273-9.610796-2.253787-2.672348-5.714962-4.99053-10.383522-6.954545-4.668561-1.964016-10.608902-3.783144-17.821023-5.457387l-20.670455-4.829545-.898155-.208983c-16.702865-3.942915-29.89401-10.232156-39.573435-18.867722-9.852273-8.789772-14.746213-20.686553-14.681819-35.690341v-.704177c.063156-11.94248 3.347247-22.429345 9.852273-31.460595 6.632576-9.2083337 15.808712-16.3882579 27.528409-21.5397731 11.719697-5.1515151 25.08144-7.7272727 40.085227-7.7272727zm-93.258165 2.7045455v38.8295453h-90.119318v40.568182h83.068182v38.926136h-83.068182v40.664773h90.119318v38.829545h-137.931818v-197.8181813zm-286.252484 0 41.823864 82.7784093h1.738636l41.823864-82.7784093h53.414773l-72.346591 131.7500003v66.068181h-47.522727v-66.068181l-72.346591-131.7500003z" fill-rule="nonzero"/></g></svg>