<?xml version="1.0" encoding="UTF-8"?>
<svg width="1482px" height="643px" viewBox="0 0 1482 643" version="1.1" xmlns="http://www.w3.org/2000/svg" xmlns:xlink="http://www.w3.org/1999/xlink">
    <title>YESS-Light-On-Dark</title>
    <g id="YESS-Light-On-Dark" stroke="none" stroke-width="1" fill="none" fill-rule="evenodd">
        <rect fill="#000000" x="0" y="0" width="1482" height="643"></rect>
        <g id="YESS" transform="translate(169.162645, 142.662645)" fill="#FFFFFF">
            <g id="Icon" transform="translate(177.837355, 177.837355) rotate(-45.000000) translate(-177.837355, -177.837355) translate(52.837355, 51.337355)">
                <polygon id="3" points="200 -2.47434327e-13 250 -2.38809282e-13 250 253 -4.98926666e-14 253 -4.98926666e-14 203 200 203"></polygon>
                <polygon id="2" points="125 -2.47434327e-13 175 -2.38809282e-13 175 175 -4.495658e-14 175 -3.31604604e-14 125 125 125"></polygon>
                <polygon id="1" points="47.5718075 0.281439558 97.2182541 4.36483168e-12 97.2182541 102.875108 2.60543684e-12 104.289322 0.195653121 53.3144481 47.5718075 52.6073414"></polygon>
            </g>
            <path d="M1066.7496,64.3373555 C1084.70007,64.3373555 1100.22579,67.341165 1113.32674,73.348784 C1126.42769,79.3564031 1136.54293,87.8068793 1143.67245,98.7002126 C1150.80198,109.593546 1154.40293,122.314498 1154.47531,136.86307 L1154.47531,136.86307 L1096.71531,136.86307 L1096.67035,136.348771 C1096.00667,129.357034 1093.32547,123.882752 1088.62674,119.925927 C1083.81341,115.872594 1076.52102,113.845927 1066.7496,113.845927 C1060.52483,113.845927 1055.44007,114.587832 1051.49531,116.071641 C1047.55055,117.555451 1044.63722,119.564022 1042.75531,122.097355 C1040.87341,124.630689 1039.89626,127.525927 1039.82388,130.78307 C1039.67912,133.461165 1040.16769,135.867832 1041.2896,138.00307 C1042.4115,140.138308 1044.20293,142.056403 1046.66388,143.757355 C1049.12483,145.458308 1052.27341,146.996403 1056.1096,148.371641 C1059.94579,149.746879 1064.50579,150.977355 1069.7896,152.06307 L1069.7896,152.06307 L1088.0296,155.971641 L1089.14333,156.210817 C1100.971,158.786489 1111.13118,162.144859 1119.62388,166.285927 C1128.38198,170.556403 1135.54769,175.568784 1141.12102,181.32307 C1146.69436,187.077355 1150.80198,193.537355 1153.44388,200.70307 C1156.08579,207.868784 1157.44293,215.685927 1157.51531,224.154498 C1157.44293,238.775451 1153.78769,251.152594 1146.5496,261.285927 C1139.3115,271.41926 1128.97912,279.127832 1115.55245,284.411641 C1102.12579,289.695451 1086.00293,292.337355 1067.18388,292.337355 C1047.85817,292.337355 1031.0115,289.478308 1016.64388,283.760213 C1002.27626,278.042117 991.129596,269.229736 983.203882,257.32307 C975.278168,245.416403 971.27912,230.162117 971.206739,211.560213 L971.206739,211.560213 L1028.53245,211.560213 L1028.57166,212.215256 C1029.00549,218.731802 1030.69337,224.231549 1033.63531,228.714498 C1036.67531,233.346879 1040.96388,236.857355 1046.50102,239.245927 C1052.03817,241.634498 1058.64293,242.828784 1066.31531,242.828784 C1072.75722,242.828784 1078.1496,242.032594 1082.49245,240.440213 C1086.83531,238.847832 1090.12864,236.640213 1092.37245,233.817355 C1094.61626,230.994498 1095.77436,227.773546 1095.84674,224.154498 C1095.77436,220.752594 1094.67055,217.766879 1092.53531,215.197355 C1090.40007,212.627832 1086.90769,210.311641 1082.05817,208.248784 C1077.20864,206.185927 1070.65817,204.249736 1062.40674,202.440213 L1062.40674,202.440213 L1040.25817,197.66307 L1039.3088,197.454188 C1020.07139,193.161277 1004.88023,186.083285 993.73531,176.220213 C982.407691,166.195451 976.780072,152.497355 976.852453,135.125927 C976.780072,121.011641 980.561977,108.652594 988.198168,98.048784 C995.834358,87.4449745 1006.43817,79.1754507 1020.0096,73.2402126 C1033.58102,67.3049745 1049.16102,64.3373555 1066.7496,64.3373555 Z M874.952183,64.3373555 C892.902659,64.3373555 908.428373,67.341165 921.529325,73.348784 C934.630278,79.3564031 944.745516,87.8068793 951.87504,98.7002126 C959.004563,109.593546 962.605516,122.314498 962.677897,136.86307 L962.677897,136.86307 L904.917897,136.86307 L904.872936,136.348771 C904.209259,129.357034 901.528056,123.882752 896.829325,119.925927 C892.015992,115.872594 884.723611,113.845927 874.952183,113.845927 C868.727421,113.845927 863.642659,114.587832 859.697897,116.071641 C855.753135,117.555451 852.839802,119.564022 850.957897,122.097355 C849.075992,124.630689 848.098849,127.525927 848.026468,130.78307 C847.881706,133.461165 848.370278,135.867832 849.492183,138.00307 C850.614087,140.138308 852.405516,142.056403 854.866468,143.757355 C857.327421,145.458308 860.475992,146.996403 864.312183,148.371641 C868.148373,149.746879 872.708373,150.977355 877.992183,152.06307 L877.992183,152.06307 L896.232183,155.971641 L897.345912,156.210817 C909.173584,158.786489 919.33377,162.144859 927.826468,166.285927 C936.584563,170.556403 943.750278,175.568784 949.323611,181.32307 C954.896944,187.077355 959.004563,193.537355 961.646468,200.70307 C964.288373,207.868784 965.645516,215.685927 965.717897,224.154498 C965.645516,238.775451 961.990278,251.152594 954.752183,261.285927 C947.514087,271.41926 937.181706,279.127832 923.75504,284.411641 C910.328373,289.695451 894.205516,292.337355 875.386468,292.337355 C856.060754,292.337355 839.214087,289.478308 824.846468,283.760213 C810.478849,278.042117 799.332183,269.229736 791.406468,257.32307 C783.480754,245.416403 779.481706,230.162117 779.409325,211.560213 L779.409325,211.560213 L836.73504,211.560213 L836.774243,212.215256 C837.208077,218.731802 838.895961,224.231549 841.837897,228.714498 C844.877897,233.346879 849.166468,236.857355 854.703611,239.245927 C860.240754,241.634498 866.845516,242.828784 874.517897,242.828784 C880.959802,242.828784 886.352183,242.032594 890.69504,240.440213 C895.037897,238.847832 898.33123,236.640213 900.57504,233.817355 C902.818849,230.994498 903.976944,227.773546 904.049325,224.154498 C903.976944,220.752594 902.873135,217.766879 900.737897,215.197355 C898.602659,212.627832 895.110278,210.311641 890.260754,208.248784 C885.41123,206.185927 878.860754,204.249736 870.609325,202.440213 L870.609325,202.440213 L848.460754,197.66307 L847.511389,197.454188 C828.273977,193.161277 813.082812,186.083285 801.937897,176.220213 C790.610278,166.195451 784.982659,152.497355 785.05504,135.125927 L785.054849,134.371484 C785.118956,120.570806 788.900924,108.46324 796.400754,98.048784 C804.036944,87.4449745 814.640754,79.1754507 828.212183,73.2402126 C841.783611,67.3049745 857.363611,64.3373555 874.952183,64.3373555 Z M766.971912,67.3773555 L766.971912,116.017355 L667.086198,116.017355 L667.086198,154.234498 L758.720483,154.234498 L758.720483,202.874498 L667.086198,202.874498 L667.086198,241.091641 L766.537626,241.091641 L766.537626,289.731641 L606.720483,289.731641 L606.720483,67.3773555 L766.971912,67.3773555 Z M443.151641,67.3773555 L486.580213,157.708784 L488.317355,157.708784 L531.745927,67.3773555 L599.060213,67.3773555 L517.414498,219.811641 L517.414498,289.731641 L457.48307,289.731641 L457.48307,219.811641 L375.837355,67.3773555 L443.151641,67.3773555 Z" fill-rule="nonzero"></path>
        </g>
    </g>
</svg>